<?xml version="1.0" encoding="UTF-8"?><svg id="Layer_1" xmlns="http://www.w3.org/2000/svg" viewBox="0 0 159.28 162.59"><defs><style>.cls-1{fill:#fff;}.cls-2{fill:#fdb913;}</style></defs><path class="cls-1" d="m0,123.87c0,6.61,5.05,11.4,12.01,11.4,4.48,0,7.66-1.83,9.56-3.37v-9.85h-10v4.27h4.39v2.9l-.06.04c-.97.64-2.16.94-3.63.94-3.58,0-6.18-2.65-6.18-6.3v-.06c0-3.5,2.56-6.24,5.83-6.24,2.01,0,3.62.61,5.37,2.05l3.47-4.17c-2.51-2.14-5.34-3.14-8.87-3.14-6.77,0-11.88,4.93-11.88,11.47v.06Z"/><path class="cls-1" d="m50.8,123.74c0-6.39-5.21-11.4-11.85-11.4s-11.91,5.04-11.91,11.47v.06c0,6.39,5.2,11.4,11.85,11.4s11.91-5.04,11.91-11.47v-.06Zm-6.06.13c0,3.47-2.49,6.08-5.79,6.08s-5.83-2.7-5.83-6.14v-.06c0-3.47,2.48-6.08,5.76-6.08s5.86,2.7,5.86,6.14v.06Z"/><path class="cls-1" d="m70.12,134.83h6.83l-5.27-7.7.14-.06c2.95-1.25,4.51-3.58,4.51-6.73v-.06c0-2.13-.65-3.85-1.94-5.1-1.55-1.58-3.96-2.39-7.17-2.39h-10.42v22.04h5.93v-6.75h2.9l4.49,6.75Zm-7.39-16.94h4.17c2.2,0,3.47,1.01,3.47,2.77v.06c0,1.73-1.29,2.77-3.44,2.77h-4.2v-5.6Z"/><path class="cls-1" d="m103.49,123.74v-.06c0-6.62-4.89-10.89-12.45-10.89h-8.47v22.04h8.35c7.64,0,12.58-4.35,12.58-11.08Zm-15-5.73h2.64c3.87,0,6.27,2.21,6.27,5.76v.06c0,3.55-2.4,5.76-6.27,5.76h-2.64v-11.59Z"/><path class="cls-1" d="m132.47,123.74c0-6.39-5.2-11.4-11.85-11.4s-11.91,5.04-11.91,11.47v.06c0,6.39,5.2,11.4,11.85,11.4s11.91-5.04,11.91-11.47v-.06Zm-6.06.13c0,3.47-2.49,6.08-5.79,6.08s-5.83-2.7-5.83-6.14v-.06c0-3.47,2.48-6.08,5.76-6.08s5.86,2.7,5.86,6.14v.06Z"/><polygon class="cls-1" points="159.28 134.83 159.28 112.79 153.42 112.79 153.42 124.81 144.06 112.79 138.48 112.79 138.48 134.83 144.35 134.83 144.35 122.36 154.05 134.83 159.28 134.83"/><path class="cls-1" d="m28.25,159.61c-2.71,0-4.75-2.21-4.75-5.14v-.05c0-2.9,2.04-5.09,4.75-5.09,1.45,0,2.71.54,4.07,1.75l2.07-2.39c-1.7-1.64-3.54-2.34-6.12-2.34-4.67,0-8.19,3.49-8.19,8.12v.05c0,4.6,3.46,8.08,8.05,8.08,2.67,0,4.53-.79,6.36-2.72l-2.06-2.08c-1.29,1.15-2.4,1.82-4.19,1.82Z"/><path class="cls-1" d="m54.97,154.42c0-4.6-3.58-8.08-8.33-8.08s-8.37,3.57-8.37,8.12v.05c0,4.6,3.58,8.08,8.33,8.08s8.37-3.57,8.37-8.12v-.05Zm-3.42.09c0,2.9-2.11,5.09-4.91,5.09s-4.96-2.26-4.96-5.14v-.05c0-2.9,2.11-5.09,4.91-5.09s4.96,2.26,4.96,5.14v.05Z"/><polygon class="cls-1" points="60.16 146.62 60.16 162.32 71.37 162.32 71.37 159.38 63.42 159.38 63.42 146.62 60.16 146.62"/><polygon class="cls-1" points="76.09 146.62 76.09 162.32 87.3 162.32 87.3 159.38 79.35 159.38 79.35 146.62 76.09 146.62"/><polygon class="cls-1" points="102.77 155.85 102.77 152.98 95.25 152.98 95.25 149.49 103.79 149.49 103.79 146.62 92.02 146.62 92.02 162.32 103.91 162.32 103.91 159.45 95.25 159.45 95.25 155.85 102.77 155.85"/><path class="cls-1" d="m108.4,154.52c0,4.75,3.4,8.08,8.26,8.08,2.49,0,4.74-.83,6.69-2.46v-6.74h-6.68v2.78h3.53v2.47l-.05.04c-.89.64-2.06.98-3.38.98-2.87,0-4.96-2.18-4.96-5.18v-.05c0-2.81,2.11-5.09,4.7-5.09,1.84,0,2.97.6,4.15,1.57l2.05-2.47c-1.77-1.47-3.55-2.08-6.09-2.08-4.62,0-8.24,3.57-8.24,8.12v.05Z"/><polygon class="cls-1" points="139.54 155.85 139.54 152.98 132.03 152.98 132.03 149.49 140.57 149.49 140.57 146.62 128.79 146.62 128.79 162.32 140.68 162.32 140.68 159.45 132.03 159.45 132.03 155.85 139.54 155.85"/><polygon class="cls-2" points="92.7 55.46 92.7 59.69 107.22 54.76 107.22 50.53 92.7 55.46"/><polygon class="cls-2" points="88.57 50.23 106.59 34.16 106.59 28.8 84.78 48.26 88.57 50.23"/><polygon class="cls-2" points="80.81 44.84 93.12 20.39 88.64 20.39 80.81 35.95 80.81 44.84"/><path class="cls-1" d="m80.99,9.89l-1.09.24-.4-1.65,1.99-.54h1.69v6.72h-2.19v-4.77Z"/><path class="cls-1" d="m86.08,12.82v-.02c0-.81.48-1.31,1.2-1.6-.51-.26-.97-.71-.97-1.45v-.02c0-1.1,1.1-1.87,2.68-1.87s2.68.77,2.68,1.87v.02c0,.73-.47,1.19-.97,1.45.68.28,1.2.75,1.2,1.6v.02c0,1.16-1.18,1.96-2.91,1.96s-2.91-.81-2.91-1.96Zm3.68-.25v-.02c0-.36-.31-.65-.77-.65s-.77.29-.77.65v.02c0,.33.26.67.77.67s.77-.34.77-.67Zm-.08-2.55v-.02c0-.33-.28-.63-.7-.63s-.7.3-.7.63v.02c0,.37.29.65.7.65s.7-.28.7-.65Z"/><path class="cls-1" d="m94.47,12.82v-.02c0-.81.48-1.31,1.2-1.6-.5-.26-.97-.71-.97-1.45v-.02c0-1.1,1.1-1.87,2.68-1.87s2.68.77,2.68,1.87v.02c0,.73-.47,1.19-.97,1.45.68.28,1.2.75,1.2,1.6v.02c0,1.16-1.18,1.96-2.91,1.96s-2.91-.81-2.91-1.96Zm3.68-.25v-.02c0-.36-.3-.65-.77-.65s-.77.29-.77.65v.02c0,.33.26.67.77.67s.77-.34.77-.67Zm-.08-2.55v-.02c0-.33-.28-.63-.7-.63s-.7.3-.7.63v.02c0,.37.29.65.7.65s.7-.28.7-.65Z"/><path class="cls-1" d="m103.04,14.02l.96-1.44c.44.33.91.51,1.4.51.72,0,1.1-.45,1.17-1.27-.37.37-.88.62-1.48.62-1.13,0-2.1-.81-2.1-2.07v-.02c0-1.59,1.23-2.51,2.78-2.51,1.04,0,1.67.31,2.17.82.49.49.81,1.29.81,2.43v.02c0,2.19-1.16,3.69-3.25,3.69-1.02,0-1.8-.29-2.47-.78Zm3.56-3.76v-.02c0-.44-.31-.8-.74-.8s-.72.35-.72.79v.02c0,.43.3.75.74.75s.72-.33.72-.74Z"/><path class="cls-1" d="m51.15,12.93h0c0-1.01.71-1.79,1.72-1.79,1.18,0,1.72.86,1.72,1.86,0,.08,0,.16,0,.25h-2.28c.09.37.36.56.74.56.28,0,.51-.11.75-.35l.66.55c-.33.41-.8.69-1.48.69-1.07,0-1.82-.71-1.82-1.77Zm2.31-.3c-.04-.38-.26-.62-.59-.62s-.53.25-.59.62h1.18Z"/><path class="cls-1" d="m55.3,14.19l.45-.72c.39.26.82.39,1.17.39.21,0,.3-.06.3-.18h0c0-.14-.19-.2-.55-.3-.67-.18-1.21-.4-1.21-1.09h0c0-.74.58-1.14,1.36-1.14.5,0,1.01.15,1.4.4l-.41.75c-.35-.2-.74-.31-1.01-.31-.18,0-.28.07-.28.16h0c0,.14.19.21.55.31.67.19,1.21.42,1.21,1.08h0c0,.76-.56,1.15-1.39,1.15-.57,0-1.14-.16-1.61-.5Z"/><path class="cls-1" d="m59.4,13.56v-1.38h-.4v-.96h.4v-.86h1.19v.86h.79v.96h-.79v1.15c0,.24.11.34.33.34.16,0,.31-.04.45-.11v.94c-.21.12-.5.2-.83.2-.72,0-1.14-.31-1.14-1.13Z"/><path class="cls-1" d="m62.32,13.39h1.24v1.23h-1.24v-1.23Z"/><polygon class="cls-1" points="70.02 0 65.87 30.44 74.17 30.44 70.02 0"/><polygon class="cls-1" points="68.27 41.58 70.11 40.61 71.97 41.58 76.81 44.1 76.81 34.44 74.17 34.44 65.87 34.44 63.45 34.44 63.45 44.1 68.27 41.58"/><path class="cls-1" d="m76.63,18.88l.55,4h27.89v37.25c0,1.79-.19,3.54-.55,5.23-1.66.19-2.71.65-3.66,1.08-1.04.47-1.86.83-3.68.83s-2.64-.37-3.68-.83c-1.14-.51-2.45-1.08-4.78-1.15v-10.48l-18.58-9.69-15.25,7.96v-30.21h7.99l.55-4h-12.54v41.25c0,16.07,13.03,29.1,29.1,29.1s29.1-13.03,29.1-29.1V18.88h-32.43Zm-18.71,38.87l12.27-6.44,12.27,6.44c.59.31.37,1.19-.29,1.19h-1.76v8.28c-.32.03-.67.05-1.07.05-1.49,0-2.31-.25-3.12-.59v-7.75h-3.93v6.46c-.55-.08-1.16-.12-1.87-.12-.91,0-1.67.08-2.32.2v-6.54h-3.93v7.93c-.68.25-1.45.41-2.66.41-.61,0-1.1-.04-1.53-.12v-8.22h-1.76c-.66,0-.88-.89-.29-1.19Zm6.18,21.79c1.1-.23,1.9-.59,2.64-.92,1.04-.47,1.86-.83,3.68-.83s2.64.37,3.68.83c1.22.55,2.6,1.17,5.24,1.17s4.02-.62,5.24-1.17c1.04-.47,1.86-.83,3.68-.83s2.64.37,3.68.83c.96.43,2.03.9,3.72,1.08-4.3,3.45-9.75,5.53-15.69,5.53s-11.54-2.14-15.87-5.69Zm35.58-3.91c-.52.17-1.26.36-2.51.36-1.82,0-2.64-.37-3.68-.83-1.22-.55-2.6-1.17-5.24-1.17s-4.02.62-5.24,1.17c-1.04.47-1.86.83-3.68.83s-2.64-.37-3.68-.83c-1.22-.55-2.6-1.17-5.24-1.17s-4.02.62-5.24,1.17c-1.04.47-1.86.83-3.68.83-.36,0-.68-.02-1-.05-1.41-1.73-2.6-3.64-3.51-5.7,1.07.44,2.37.85,4.5.85,2.64,0,4.02-.62,5.24-1.17,1.04-.47,1.86-.83,3.68-.83s2.64.37,3.68.83c1.22.55,2.6,1.17,5.24,1.17s4.02-.62,5.24-1.17c1.04-.47,1.86-.83,3.68-.83s2.64.37,3.68.83c1.22.55,2.6,1.17,5.24,1.17s4.02-.62,5.24-1.17c.28-.13.54-.24.82-.35-.89,2.19-2.1,4.23-3.54,6.06Z"/></svg>